<svg height="50.285702" viewBox="0 0 64 50.285702" width="64" xmlns="http://www.w3.org/2000/svg"><path d="m64 16.2143v28.3571q0 2.3572-1.678571 4.0357-1.678572 1.6786-4.035715 1.6786h-52.5714283q-2.3571428 0-4.0357143-1.6786-1.6785714-1.6785-1.6785714-4.0357v-28.3571q1.5714286 1.75 3.6071429 3.1071 12.9285711 8.7857 17.7500001 12.3214 2.035714 1.5 3.303571 2.3393 1.267857.8393 3.375 1.7143 2.107143.875 3.928572.875h.07143q1.821429 0 3.928572-.875 2.107143-.875 3.375-1.7143 1.267857-.8393 3.303571-2.3393 6.071429-4.3928 17.785714-12.3214 2.035715-1.3928 3.571429-3.1071zm0-10.5q0 2.8214-1.75 5.3928-1.75 2.5715-4.357143 4.3929-13.428571 9.3214-16.714286 11.6071-.357142.25-1.517857 1.0893-1.160714.8393-1.928571 1.3572-.767857.5178-1.857143 1.1607-1.089286.6428-2.053571.9643-.964286.3214-1.785715.3214h-.07143q-.821429 0-1.785715-.3214-.964285-.3215-2.053571-.9643-1.089286-.6429-1.857143-1.1607-.767857-.5179-1.928571-1.3572-1.160715-.8393-1.517857-1.0893-3.25-2.2857-9.357143-6.5178-6.1071431-4.2322-7.3214289-5.0893-2.2142857-1.5-4.1785714-4.125-1.9642837-2.625-1.9642837-4.875 0-2.7857 1.4821429-4.6429 1.4821428-1.8571 4.2321428-1.8571h52.5714283q2.321429 0 4.017857 1.6786 1.696429 1.6785 1.696429 4.0357z"/></svg>